/* XPM */
static char *ce2d01a838394b66f412547e2eb4117cPAEUZ86WUAgJkNaI[] = {
/* columns rows colors chars-per-pixel */
"64 64 66 1 ",
"  c #050608",
". c #060709",
"X c #05060B",
"o c #06070B",
"O c #06070C",
"+ c #07080A",
"@ c #07080C",
"# c #07080D",
"$ c #08090D",
"% c #08090E",
"& c #090A0E",
"* c #090A0F",
"= c #0A0B0F",
"- c #0A0B10",
"; c #0B0C10",
": c #0B0C11",
"> c #0C0D12",
", c #0D0E13",
"< c #0B0E15",
"1 c #0C0C14",
"2 c #0D0D15",
"3 c #0E0F14",
"4 c #0C0F16",
"5 c #0E0E16",
"6 c #0F0F17",
"7 c #0F1015",
"8 c #0D1017",
"9 c #0F1316",
"0 c #0F1217",
"q c #0E1118",
"w c #0F1219",
"e c #101116",
"r c #111217",
"t c #101417",
"y c #101018",
"u c #111119",
"i c #101318",
"p c #121318",
"a c #10131A",
"s c #12121A",
"d c #111518",
"f c #111419",
"g c #121619",
"h c #11141B",
"j c #12151A",
"k c #13171A",
"l c #13161B",
"z c #12151C",
"x c #13161D",
"c c #14171C",
"v c #14171E",
"b c #15181D",
"n c #15181F",
"m c #141720",
"M c #151821",
"N c #161920",
"B c #171A21",
"V c #161922",
"C c #171A23",
"Z c #181B22",
"A c #191C23",
"S c #181B24",
"D c #191C25",
"F c #1A1D24",
"G c #1B1E25",
"H c #1A1D26",
/* pixels */
"  @@+%%&@%::1111<<8<88w8w8w8wwwwwwwwwwwwqq8888<<;;;;7;;;;;O%%%OX",
" + @++%%%%:;1111<<<8888w8wwwwwwwwwxwwwxwqq8888<<8;;8;71;;%%O%%%X",
" +@@+&&&%%;;1111<<188888wwwwwxxwwwwwwwwwqqq81<8<77;;8;1;;%%%%%OX",
"+ @@&&&&%;;>11118888888wwwwwwwwwxwxwxwxwqqq888<88;8117;%;%%@%%%X",
"+++%%%%=::>>11618888qqwwwwwwxxwxwwxwwwwxwwwq88887;7;7;;:;%O%%%OX",
"+++%%%==@;;>61611888qwwwwxwxwxxwxxwwxwxwwwwq8888771;;;;:%%%O%%%X",
"++%%=%==::>>166188qqqwqwxwxwxxxxwxwxwxwxwwwq888877;;1;;@1%O%%%OX",
"++%%%===@:>111668qqqqwqzwxxxxwxxxwxwxwxwwww88888777;8;;:;%%O%%%X",
"+ @@%%==::1;11q6qqqqqqwwhhhzzzzzxxxxzzwwwwwwqq88;7717>>;%-%%@@OO",
" +@+&===%:;;6161qqqqwwzwhhhzzzzzxwwxzxzwzwzwqqq8777;>>>>-%-%@%%O",
"+ @%&&==:::11666qqqwwwzwhhzzzzczxxmxxxxwzwwwwqqq77777;>>%-%%%OO%",
"++++&&==:::;1166qqwqzwwzzzzzzmzmwxxxxxwzzwzwwwqw77>77>>;1%-%%%%O",
"++@@%===;>>>6666qwwqhwhhzzzzzczzxxxxxxzwwxwwwwww77777>7;--%-%%%%",
"++%%%=>=;>>>6666wwwzwhhhzzczczMcxxxnnxzzxwxwzwww77777=;7--1%%%%%",
"++%===;;>>1766u6uqqhzhzzzmzmzMcmxxmxxxxkxwzwwwww7777>7;8;---%%%%",
"+&%%;;;;>>71166uqqhwhhzzczczmcmcxmxnnxxxzzwxwzww777787811;---%%%",
"@@%%::::>3>>rr3rr7dddzcdzczmmmmMMbMbbMMzmzzzwwwwt777>>>>>>::%%OO",
"@@@:::::>>3e>rrr99tdudccmzMcmmMMbMbMMzbbzzzzzzwwr777>7>>;>::%%O%",
"@%%%::::>3>>rr3r99ttzdzlmcmcmMMMMMMbbMbbzczzzwqqr77>>>>>;;;::O%O",
"@@%:%:::>>3e3rrr9tttdcdbcmcbMMMMZbMbMbMbzmzzzwzq7r77r>>>;;;:%:O%",
"%@%%::::>3>>7r7rtuddccccbbMbMMMMMbMbbMbMMMzzzhwwurr7>7>7:::%:%O%",
"OO%:::::>>3e77rrtddlcdccMbbMMMSSZZMZZMMbbzzczhwzrrr>77>7::::%O%O",
"%O%%%:::>3>777rrtdddccccbMbMMSMMZZZbZbMMMbMzzhzwrr7r77>>:::::%O%",
"O%%%::::>1>>7rrrddddccccMbMMMMSMbMZZMbZbMzMczhhzrrtr7>7>::::%%%O",
"%%::::;1;877rrrpttdkccccbMbMMMMMMZZbMMZZbxbzzzhwrr7r7>>>::::::%%",
"%%%%;;1;17;77rrpttkkccccMbMbSMMSMbMbZbbZMbmzzzhzrrr77777:::%%%%:",
"%%::;;8;;777rrppttdkccccMbbMSMSMZbZZMZZZMxMzzdhwrr7r77>>:::::%%:",
"%%%%;;;1;;77rrppttkkccccbMbMMMSMZZZMZZMbMbxbzzhwrr77777>::::::%%",
"%%::%:7;;7>77dppttdbbkccMbbMDZDSZZZZZZbMbxbzzwzqrr7r77;>::::%%:%",
"%%%%::;1;1777rppttdkcbccbMZbMSDDZZZZbZZMMbmzzzzzrrr777>7:::%:%:%",
"%%::::1;8;77rrtpttdlccccMbMMSSDDDZZZMZbMMxmzzzdwrr7r771;::::::%%",
"%%%:%:;1;7777udpdtdcccccbMZZDDDDGGZZZZbZMbxzzzzwrrr77711::::%%%:",
"%%%:;;>>>7777rrrwxwzxxxnBBBBBBBBnZZbZZbMMczzzczzur77773>>;:%::%%",
"%%%:;;>>>>>7r7rrwwzzxnxnnBnBBBBBnZZnbMbZMzzzczzwdu77773>>;:%:%:%",
"%%%:::>>7>777rrrwxgzxnxBnnBBBFFFZZZZMbMZbczzmczwur77773>>;;:%:%%",
"%%@:::>>7>>7r7rrwgzxxxxnxnBBBBBFZnnnZZMbMzzzzzzztr77773>>;::::%%",
"%%%:::;>>>777rrrwwxxxxnnxnBnBFFGMZZZbbMZMczzzzzzlr77773>:::%::%%",
"%%%:;;;1>777r7rrwxwxxnxBBnBBBBBFZZbMMZMbMzzzczzqrr77773>;:::%:%%",
"%%%:=>>>>7>r7rrrwwwxxxxnnBnBBFBBZbZbZMZbbzzzmzzzpr77773>;;%::::O",
"%%%:=>>>>>>7r7rrxxwxxnxnBBBBBBBBZZZMbbZMMmzzczzqpr77773>>1::%%:%",
"%%%::::;>>7777rrwxxxxmxBnxBnBnBBZZMbMbZMbzcmzzhhr7r7r>>>;;%:%O%O",
"%%%:::;1>>>77r7rwwwxxxxxxnnnnBBBZZbMbZMbbbzzzzhhrr77>>7>1;:::OO%",
"%%%%;11;>7>77r7rxwxwxxmxnxxnBBnBZMMbZMMzMccmzhzzrr777>>>:::%:O%O",
"%%::;;;1>>>777rrwwxxxxxnxnxNxBBnbMbZZZMbzzzzzhhzr7r7r>7>::::%:O%",
"%%%-;;1;>>>>1rrrwwwwxxxxxxxnnnBnbMbMMZMzzczzhhzqr7r>7>>>:::%:%O%",
"%%--;;;1>777r7rrwwzzxkxxxxxxnNxBZMMbMbbzmzzzzqqzrrrr7>>>::::O%%O",
"%%--;;8;>>>>7rrtwwwxwzxxxxxnxNnnZZbMbMzzzzzhzzqqrr777>1:::%::%O%",
"%%%;;;1;>>7777qdwwwwzxxxxxxxxnnBGZbbczzzzzzzhqzqr7r771>:::::%%%O",
"@@@@=$===8771uuuwwwwxzzzxxxxmxnxxxxxxxxxzzwzwwwwrr7>77>>;:%:@OO@",
"@+*@$===7=;77quuwwwwzwzxxxxxxxxnxxxxxxxxzzzzwwwwr>77777>;%%:@:%@",
"++@*=$====776uu7wwwwwzwwzzxxxxxmxxxxxxxxwzzwwwwwr7>777>>::%%%%O%",
"++*@$===77;71166wwwwwzzzzzzxxxxxxxxxxxxxwzwzwwwqrr>777>>:%:%%%%O",
"+++***==>7>76666qqwwwwwzzzzzzxxxzzzzzzzzzzwwwwqq777>77>>::%:%%O%",
"++*@$*==>>>16166qqqwwzwwzwzzzzxxzzzzzzzzwwzwwqqqr>>>7>>;%:%%%%%O",
"++@*=$===;>>616u8qqqwzwzzzwzzzzzzzzzzzxxwzwwqqq8r7>7>>>>:::%%%O%",
"++*@$===;;>116u688qwwwwwwzzzzzzzzzzzzzzxwwwwqq88>7>>>7>>:%%:%%%O",
"++%+&&==:%1111q18888qwwwwxzzzxzzwwwzwwwzwwwwww88>77>:::::%:%O%O%",
"+ &&&&==:;;;1q1y8888qwwwwwwwwwzzzwwzwzwwzwwwww8877;71:::::%%%%%O",
"+++&&&==@::;6117<888qwwwzwzzzzzzwwwwzwzwzwqqwwq8;71>;;::%%%:%%O%",
"+++&&&%%::::11618<88qqwwzwwwzwwzwzzwwwzwwwqqww887;1;1;::%::O%O%O",
" ++%%%%%:O:;11618<888qqqwwwwzwzxwwwwwwwwwww8q88817;1::%%%:%OOOOO",
"+  +%+&%O:::1111<<<88qqqwwwzwwwwwwwwwwwwwqq8q88<;;;;:::::%%:%OOO",
"+ O%%%%%%:::1111<<8888qqwwwwwzwzwwwwwwwwwq88qq81;18;%::%O%OOOOOO",
"   %+%%%O%:>1111<<8888qwwwwwwzwwwwwwwwwwwq8888817;;;::%:%%:O%OOO"
};
