/* XPM */
static char *_000f8e173094553b67d2464d483b487ofpUVfC0FUw5vjvE[] = {
/* columns rows colors chars-per-pixel */
"64 64 251 2 ",
"   c None",
".  c #E72500",
"X  c #E52C00",
"o  c #E82A00",
"O  c #E82700",
"+  c #E93400",
"@  c #EA3B00",
"#  c #E53702",
"$  c #E93A17",
"%  c #9C6C01",
"&  c #9D7204",
"*  c #8D6000",
"=  c #BC6B07",
"-  c #A77706",
";  c #BD7D04",
":  c #BB7406",
">  c #B77D11",
",  c #DC5B03",
"<  c #D75402",
"1  c #EA4300",
"2  c #EB4C01",
"3  c #E44502",
"4  c #ED5301",
"5  c #EC5A01",
"6  c #E65801",
"7  c #EC4D1D",
"8  c #C46D07",
"9  c #D56B03",
"0  c #C37305",
"q  c #CA7305",
"w  c #C47508",
"e  c #CA7D0A",
"r  c #C87A08",
"t  c #D3740A",
"y  c #DB7C0D",
"u  c #D87B06",
"i  c #C67A13",
"p  c #EC6300",
"a  c #E46B01",
"s  c #ED6D00",
"d  c #E16300",
"f  c #E57400",
"g  c #EB7401",
"h  c #E47B00",
"j  c #ED7C00",
"k  c #F17F01",
"l  c #F57908",
"z  c #EA6F17",
"x  c #E95530",
"c  c #F9793F",
"v  c #EB7352",
"b  c #F17862",
"n  c #AD8301",
"m  c #BB8509",
"M  c #BA8706",
"N  c #BC9309",
"B  c #BA9114",
"V  c #BA9929",
"C  c #B68C22",
"Z  c #BFA22B",
"A  c #C28506",
"S  c #CC8305",
"D  c #C58B07",
"F  c #CD8409",
"G  c #C68B09",
"H  c #CB8C0A",
"J  c #C68507",
"K  c #D8870A",
"L  c #CD930B",
"P  c #C6970A",
"I  c #DC920E",
"U  c #D29A0D",
"Y  c #D6970B",
"T  c #D78614",
"R  c #CB9E14",
"E  c #D59513",
"W  c #DA9718",
"Q  c #CD8612",
"!  c #E48300",
"~  c #ED8500",
"^  c #E58B00",
"/  c #ED8D00",
"(  c #E4880D",
")  c #F48400",
"_  c #F88600",
"`  c #F48C00",
"'  c #F88B00",
"]  c #EC9300",
"[  c #EC9C01",
"{  c #E39809",
"}  c #F39200",
"|  c #F49C00",
" . c #F79A05",
".. c #E38411",
"X. c #E58C14",
"o. c #E49612",
"O. c #E79816",
"+. c #F39816",
"@. c #F58916",
"#. c #DDA50F",
"$. c #DDA90F",
"%. c #D7A10F",
"&. c #DBA612",
"*. c #DDA911",
"=. c #D8A317",
"-. c #D9B416",
";. c #CAAB19",
":. c #E1AB0F",
">. c #E7A607",
",. c #F3A300",
"<. c #F9A500",
"1. c #F3AC00",
"2. c #F9AC00",
"3. c #EEB202",
"4. c #EBB40B",
"5. c #F4B401",
"6. c #FAB400",
"7. c #F4BC01",
"8. c #FBBA00",
"9. c #E1AB12",
"0. c #E7A516",
"q. c #F1A519",
"w. c #F2A918",
"e. c #E3B31D",
"r. c #E7B517",
"t. c #F1BA11",
"y. c #D79827",
"u. c #E88A25",
"i. c #EB982B",
"p. c #F49829",
"a. c #E59638",
"s. c #F89B36",
"d. c #EC882E",
"f. c #C6A82A",
"g. c #D9A825",
"h. c #D8B831",
"j. c #E5AB27",
"k. c #F4A929",
"l. c #E7B72A",
"z. c #E4A73A",
"x. c #F6A734",
"c. c #E8BB35",
"v. c #F6B23D",
"b. c #DFC51D",
"n. c #F6C402",
"m. c #FBC201",
"M. c #F6CC03",
"N. c #FCCB01",
"B. c #F8CA0C",
"V. c #FBD301",
"C. c #FCDD03",
"Z. c #F6D40B",
"A. c #F9DC0A",
"S. c #FDD40E",
"D. c #E5C219",
"F. c #F4CC18",
"G. c #E9D81E",
"H. c #F5D518",
"J. c #FCE204",
"K. c #FBE30B",
"L. c #FEEA0E",
"P. c #FEE312",
"I. c #FBE919",
"U. c #FDF01D",
"Y. c #DACA31",
"T. c #D7C42A",
"R. c #F3C423",
"E. c #E9DB23",
"W. c #F6D729",
"Q. c #EEC132",
"!. c #F5CA37",
"~. c #E5D934",
"^. c #F2D737",
"/. c #E3C622",
"(. c #EEE425",
"). c #EEE628",
"_. c #F4EB23",
"`. c #F8E828",
"'. c #FDF32A",
"]. c #F7F22B",
"[. c #EBE53A",
"{. c #FFED3A",
"}. c #F8EA37",
"|. c #F5F232",
" X c #FBFA34",
".X c #F5F53A",
"XX c #FAFA3A",
"oX c #F9F638",
"OX c #EB9947",
"+X c #F2984D",
"@X c #F8A848",
"#X c #F7B64B",
"$X c #EEA459",
"%X c #F7A857",
"&X c #F9B456",
"*X c #F6926D",
"=X c #F4B578",
"-X c #F8AB6F",
";X c #ECC747",
":X c #F5CD41",
">X c #F8D145",
",X c #F6D846",
"<X c #F3D757",
"1X c #EAD755",
"2X c #FEEC44",
"3X c #FDEC4B",
"4X c #ECF84D",
"5X c #F5FC45",
"6X c #FCFD44",
"7X c #F3FD4B",
"8X c #FAF649",
"9X c #F7EA55",
"0X c #EBFC53",
"qX c #E6FE5D",
"wX c #EAFD5D",
"eX c #E7F658",
"rX c #FFF555",
"tX c #F8FC58",
"yX c #EAEC4A",
"uX c #F3DC6A",
"iX c #FAC66C",
"pX c #F8E964",
"aX c #E2FE64",
"sX c #EBFE63",
"dX c #E3FE6B",
"fX c #E8F96E",
"gX c #FDFC62",
"hX c #FAFA69",
"jX c #E4FF71",
"kX c #EAFE71",
"lX c #DCD84F",
"zX c #F59A8A",
"xX c #F9BC81",
"cX c #F0AB8B",
"vX c #FB9CA1",
"bX c #F9B8B0",
"nX c #F6C49A",
"mX c #FACBB7",
"MX c #F8CCAE",
"NX c #FBCBCB",
"BX c #FCD8C9",
"VX c #FDD8D9",
"CX c #FDCCD1",
"ZX c #FBE4D8",
"AX c #FEDAE6",
"SX c #FEE3E3",
"DX c #FDEBEB",
"FX c #FFF3F5",
"GX c #FFF6F9",
"HX c #FFFAFB",
"JX c #FEF0EE",
/* pixels */
"                                                                                                                                ",
"                                                                                                                                ",
"                                                                                                                                ",
"                                                                                                                                ",
"                                                                                                                                ",
"                                                                                                                                ",
"                                                            OXOXOXOX$X$X@Xi...                                                  ",
"                                                      $XmXMX*X@X@X%X%X&X&X#XX.t                                                 ",
"                                                  i.nXDXHXNX*Xs.s.x.%X#X#X#XO.9 q                                               ",
"                                                =XZXFXHXHXJXvXv s.@X@X&XiXiXa.K 9 q y                                           ",
"                                            $XmXJXFXGXGXHXHXZX*Xp.p.x.@X&XiXOXy t 8 t y                                         ",
"                                        OXMXJXHXFXFXGXGXFXmX*X*X-Xs.+.p.x.#Xz.t t q q q y                                       ",
"                                      =XZXGXGXFXJXFXGXZX-Xz l @.+X*X@X+.@.x.a.w F q q 0 q u                                     ",
"                                    $XVXFXGXFXFXFXDXnXd.k )  . .' p.%X@XO.X.a.8 e e 0 0 0 0 t                                   ",
"                                  OXmXZXFXGXFXGXVX$Xf j ) ` } | <.<. .x.OXy.y.8 8 e q 0 : 0 0 q                                 ",
"                                OXmXVXAXGXGXFXMXd.a g j ` } | <.<.2.<. .+.i.T = = e S S S S S S y                               ",
"                              a.mXBXVXZXGXJXcXz d f h ~ ` | <.<.2.6.6.2.| [ i.i r >.4.0.S e S S K                               ",
"                              -XiXNXVXSXSX*X, < a f ~ ` | | 2.2.6.6.8.8.1.,.+.O.3.3.t.!.j.F S S S y                             ",
"                            @Xk.-XVXVXNXv 3 , 9 f j ~ } | ,.2.2.6.6.8.8.8.6.2.0.3.3.3.R.!.l.e F H Q                             ",
"                          d.x.v.BXSXbXx 3 2 a h ^ ~ ` } | <.2.6.6.6.8.8.8.8.m.0.>.3.5.5.R.!.j.r F K T                           ",
"                          k.w.bXAXNXx # 3 6 a j ^ ] ` | ,.,.,.6.8.6.8.8.8.m.S.l.E 4.5.3.n.!.>Xg.F E W ..                        ",
"                        u.k.=XAXAXv X # 3 9 h ~ [ [ } ,.1.1.u 6.8.8.8.8.8.N.B.W.y.9.n.n.m.!.>X:XW E =.X.                        ",
"                        p.#XCXAXb X X @ 2 s j / | 1.| <.2.[ 0 5.8.8.8.8.m.N.S.W.g.j.B.n.n.!.>X,Xc.K =.=.X.                      ",
"                      u.x.MXAXvX$ X X 1 d g ~ ] ,.1.,.1.6.] < 1.m.m.m.m.N.N.S.W.c.g.D.B.F.!.>X!.c.Q Q O.O.                      ",
"                      i.xXAXbX$ . X # 3 s g ` [ 1.5.1.6.8.h < [ N.V.V.V.C.V.S.`.!.h.c.F.F.>XQ.c.l.E 0 e W O.                    ",
"                    u.xXAXCXx . . # 3 5 s j } | 1.7.8.8.5.f 9 ! N.C.C.C.C.C.S.}.,Xc.#X/.!.!.l.l.e.&.0 0 w Q                     ",
"                    =XSXDXb O O X @ 4 p j ) } ,.5.n.m.N.] f f f 7.K.K.K.K.C.P.{.3X;X;X;X:Xl.e.r.9.9.r : 8 w                     ",
"                  OXxX=XzX$ o o + 1 4 s j } | 1.7.m.N.7.h j g f ^ A.P.P.P.K.P.{.3X<X<X<XQ.e.r.:.:.:.F 8 0 w                     ",
"                  %Xx.@.7 X o o + 2 5 g ) } ,.5.n.N.N.] f ) k k h 4.`.I.I.I.I.{.2X9XuX<Xj.0.9.:.:.:.L 8 8 w                     ",
"                  k.w.+.1 O + + @ 4 p k ` | 1.n.N.V.1.f j ) _ k h ! W.`.`.`.`.2X3X9XuX<Xr.:.:.$.9.:.Y : : w                     ",
"                  q.w.[ 2 o + @ 1 4 s j / ,.7.n.M.n.! h k _ _ ) k h O.{.2X{.{.2X8XpXuX<Xe.>.:.:.9.:.:.r : w                     ",
"                  +.w.+.4 # @ 1 2 4 s ) } 1.7.M.V.[ f j ) ) _ ) ) j u Q.rX2X2X2XrXpXuX<Xe.W $.$.9.:.$.D : w                     ",
"                  +.w.q.5 + @ 2 4 5 g ~ ,.3.n.V.7.h j k ) _ _ ' ) ~ h I 9XrX3XrXrXpXpX,Xe.Y &.9.*.9.*.U = w                     ",
"                  X.w.w.a 3 @ 2 5 p j } 1.7.M.Z.[ g k _ _ _ _ ' ` ` ) u ;XpXrXrXrXpX9X^.e.&.*.*.*.*.*.Y : w                     ",
"                  X.w.w.X.6 2 5 p s ~ | 3.M.M.M.! h ) ) _ _ ' ' ' ` ) u j.hXgXrXtXpX}.[.j.#.&.*.*.$.$.*.: w                     ",
"                  ( q.w.o...p p s k ^ 1.n.M.Z.M.h k ) _ _ _ ' ' ' ' ` ! u.pXhXgXtX9X).^.e.$.&.*.&.$.*.$.A =                     ",
"                    q.q.W { ~ j j ~ | 5.M.M.A.n.h k ) _ ' ' ' ' ' ` ` ! W gXhXgXgX8X_.W.e.&.*.*.$.$.$.$.A =                     ",
"                    +.q.o.Y >.] ~ ] ,.7.M.Z.A.M.! k _ _ ' ' ' ' } } ` ! W hXhXgXtXyXI.E.-.&.*.$.$.$.$.$.H w                     ",
"                    O.w.o.K Y [ / [ 3.n.Z.A.C.C.^ j ) ' ' ' ' } } ` ] K h.hXhXhXsXtX).I.r.%.*.$.*.&.R L H                       ",
"                    O.q.{ F L 3.,.3.n.Z.A.C.J.J.5.h ) _ ' ' } } / ] K Q 1XkXkXjXsX5X.X(.D.&.*.U L D A J T                       ",
"                    X.q.o.S D $.5.7.M.Z.A.C.J.J.J.[ j ) ` } ` / ^ K K h.jXjXjXfX7XoXoX|.D.U L m m A J H                         ",
"                      O.o.S N P D.B.B.Z.A.J.J.J.L.W.0.! ~ ~ ~ K K S h.aXjXjXjXsX.X|.].`.R ; ; ; A A H K                         ",
"                      ..o.S N N -.H.F.S.Z.A.J.J.L.'.{.!.0.o.K E g.lXfXjXdXdXdX.X].`._.G.M ; ; A A J E                           ",
"                        X.L M n P G.H.H.Z.A.K.J.L.'.6XtXtX4XyXsXdXjXjXjXdXdXqX|.]._.(.-.r ; M A J L ..                          ",
"                          E n - n -.H.Z.Z.A.K.K.L.XX6XtXtXtXsXsXdXdXdXdXdXaX|._._._.(.R A A A A H I                             ",
"                          X.H % & M G.G.A.K.K.L.'.XX6XtXtXtXsXsXdXdXdXdXaXeX_.(._.(.E.G D H H H L (                             ",
"                            0.m % % -.K.K.K.L._.'.XX6X7XtXwXwXaXaXdXaXdXaX|._.I.(.).D.G L U L L I                               ",
"                              =.- * n G.L.L.U.]. XXX6X7XtXsXwXaXaXaXdXaXeX_._._.(.(.-.P U L U Y                                 ",
"                              O.=.& & -._.]. X X XXX6X7X0XsXqXaXaXaXaX0X X]._.).(.G.=.L U U I                                   ",
"                                o.$.P R ;.[.7X5XXX6X5X7X0XqXqXqXaXaX0X X X X|.).(.G.R L U I                                     ",
"                                  o.U L R R Y.7X5X5X7X7X4X0XeXqXaX4X.X X X X|.).G.D.U Y X.                                      ",
"                                    ( K D N B g.[.5X7X7X0X0XqXqX0X.X X.X X.X|.|.(.-.E K                                         ",
"                                      T F J N m R ~.5X7X4X0XqX0X.X.X.XXX.X.X.X XE.*.K                                           ",
"                                        y e A m M N T.5X7X0X0X.X.X.XXX|.|.}.[.~.r.                                              ",
"                                          y e m B n m ;.yX4X[.~.~.~.Y.Y.T.h.g.O.                                                ",
"                                              i - & & - B V V V Z f.f.f.g.T                                                     ",
"                                                = = > - - m C V Z f.W                                                           ",
"                                                        y y i i y                                                               ",
"                                                                                                                                ",
"                                                                                                                                ",
"                                                                                                                                ",
"                                                                                                                                ",
"                                                                                                                                ",
"                                                                                                                                "
};
