/* XPM */
static char *_3796_cf6c1fe0f075c884f9efdcfbcd591a6140fccce0d6bd7375fe677d650a7beb01[] = {
/* columns rows colors chars-per-pixel */
"64 64 180 2 ",
"   c #075FA3",
".  c #095EA2",
"X  c #0761A5",
"o  c #0C62A5",
"O  c #0764A9",
"+  c #0B65AA",
"@  c #0768AE",
"#  c #0C6AAE",
"$  c #1263A5",
"%  c #1A66A6",
"&  c #1066AA",
"*  c #1A67A8",
"=  c #146AAD",
"-  c #1C69AA",
";  c #066CB2",
":  c #0A6DB2",
">  c #1B6EB0",
",  c #0D71B6",
"<  c #0B76BB",
"1  c #0E79BE",
"2  c #1472B6",
"3  c #1C71B3",
"4  c #1476BB",
"5  c #1975B8",
"6  c #127ABE",
"7  c #1B7ABD",
"8  c #226BAB",
"9  c #296EAC",
"0  c #2D71AE",
"q  c #3173AF",
"w  c #2373B4",
"e  c #2C75B3",
"r  c #2E79B7",
"t  c #237BBC",
"y  c #2C7DBC",
"u  c #3375B2",
"i  c #3678B5",
"p  c #3C7AB4",
"a  c #337DBA",
"s  c #3B7EB9",
"d  c #437EB6",
"f  c #177CC0",
"g  c #1B7EC1",
"h  c #257EC0",
"j  c #3380BE",
"k  c #3D82BC",
"l  c #4384BC",
"z  c #4B84BA",
"x  c #4788BF",
"c  c #4A89BE",
"v  c #538BBD",
"b  c #1C81C3",
"n  c #2483C4",
"m  c #2A84C4",
"M  c #2688C7",
"N  c #2D88C7",
"B  c #268BCB",
"V  c #2D8BCA",
"C  c #3485C2",
"Z  c #3986C2",
"A  c #3289C6",
"S  c #3D8BC5",
"D  c #338DC9",
"F  c #3C8EC8",
"G  c #2D90CD",
"H  c #3492CD",
"J  c #3B93CD",
"K  c #3D9AD1",
"L  c #4187C1",
"P  c #448BC3",
"I  c #4A8DC4",
"U  c #408FC8",
"Y  c #528EC1",
"T  c #4C91C6",
"R  c #4295CD",
"E  c #4B94CA",
"W  c #4698CF",
"Q  c #4B9ACF",
"!  c #5393C5",
"~  c #5B93C3",
"^  c #5E98C7",
"/  c #5496C9",
"(  c #539ACC",
")  c #5D9CCB",
"_  c #449CD2",
"`  c #4D9ED1",
"'  c #529FD1",
"]  c #6297C4",
"[  c #6399C6",
"{  c #689BC6",
"}  c #629DCB",
"|  c #6D9FC8",
" . c #5DA0CE",
".. c #46A0D4",
"X. c #4DA3D5",
"o. c #54A3D3",
"O. c #5AA4D3",
"+. c #5DA9D6",
"@. c #5BACD9",
"#. c #55ACD9",
"$. c #5EB2DC",
"%. c #65A1CD",
"&. c #6CA3CC",
"*. c #74A5CB",
"=. c #74A8CE",
"-. c #7BAACE",
";. c #62A5D1",
":. c #6DA7D1",
">. c #64ABD6",
",. c #6BACD5",
"<. c #63ADD8",
"1. c #74ACD2",
"2. c #7BADD1",
"3. c #70AFD8",
"4. c #6EB0D7",
"5. c #66B2DB",
"6. c #6CB3DA",
"7. c #6DB9DE",
"8. c #75B1D6",
"9. c #7DB1D4",
"0. c #75B3D9",
"q. c #7BB6DA",
"w. c #74BADD",
"e. c #7DBBDD",
"r. c #6BBBE0",
"t. c #77BDE0",
"y. c #7DBFE0",
"u. c #78C4E3",
"i. c #85B3D4",
"p. c #8AB6D5",
"a. c #8CB9D7",
"s. c #84B7D9",
"d. c #84BCDD",
"f. c #8BBCDA",
"g. c #92BBD7",
"h. c #94BDD9",
"j. c #99BFDA",
"k. c #84C0DF",
"l. c #8CC1DF",
"z. c #94C2DE",
"x. c #9CC2DC",
"c. c #A2C5DD",
"v. c #A8C7DE",
"b. c #A6C8DF",
"n. c #ABC9DF",
"m. c #83C2E0",
"M. c #8AC5E1",
"N. c #84C8E3",
"B. c #89CAE4",
"V. c #95C5E1",
"C. c #9AC6E1",
"Z. c #94CBE3",
"A. c #9DCBE3",
"S. c #A3C7E0",
"D. c #A4CCE3",
"F. c #ACCCE2",
"G. c #B3CEE2",
"H. c #AED0E6",
"J. c #B4D2E5",
"K. c #BBD4E6",
"L. c #B4D5E8",
"P. c #BCD6E8",
"I. c #BFD9EA",
"U. c #C1D6E7",
"Y. c #C1D7E8",
"T. c #C4DAEA",
"R. c #CADEEC",
"E. c #CDE0ED",
"W. c #D3E4EF",
"Q. c #D7E6F0",
"!. c #D8E7F0",
"~. c #DDEAF1",
"^. c #E3EEF2",
"/. c #E7F0F3",
"(. c #ECF4F5",
"). c #F0F7F7",
"_. c #F0F8F7",
"`. c #F4FAF9",
"'. c #FCFEFE",
"]. c None",
/* pixels */
"].].].].].].].].].].].].].].].].].].].].].].].].].].].].].].].].].].].].].].].].].].].].].].].].].].].].].].].].].].].].].].].].",
"].].].].].].].].].].].].].].].].].].].].].].].].].].].].].].].].].].].].].].].].].].].].].].].].].].].].].].].].].].].].].].].].",
"].].].].].].].].].].].].].].].].].].].].].].].].].].].].].].].].].].].].].].].].].].].].].].].].].].].].].].].].].].].].].].].].",
"].].].].].].].].].].].].].].].].].].].].].].].].].].].].E E Q R E 5 @ O O ].].].].].].].].].].].].].].].].].].].].].].].].].].].",
"].].].].].].].].].].].].].].].].].].].].].].].].E P ( O.' ' o.o.( t : # o $ O O ].].].].].].].].].].].].].].].].].].].].].].].].",
"].].].].].].].].].].].].].].].].].].].].].].j  .o.I o.5.@.o.<.<.} a 2 = - * . . O + ].].].].].].].].].].].].].].].].].].].].].].",
"].].].].].].].].].].].].].].].].].].].].].# a ) >.` +.t.5.$.r.0.&.a w 3 9 8 $ . * 8 w ].].].].].].].].].].].].].].].].].].].].].",
"].].].].].].].].].].].].].].].].].].].t - - a } 8.O.,.N.u.r.m.f.&.S r u q 8 % 8 e u e = ].].].].].].].].].].].].].].].].].].].].",
"].].].].].].].].].].].].].].].].].C j k r e k [ s.4.w.Z.B.u.V.x.2.I Z d d 9 9 q d s u & O ].].].].].].].].].].].].].].].].].].].",
"].].].].].].].].].].].].].].n.n.z.%.P T x s l { p.d.y.D.A.B.D.S.9./ P v d p p d z z 0 $ & & ].].].].].].].].].].].].].].].].].].",
"].].].].].].].].].].].].O.z.G.K.J.z.&.} [ v Y %.a.x.z.G.F.A.G.F.a.} ~ ~ d d v v ~ d 9 * 8 + @ ].].].].].].].].].].].].].].].].].",
"].].].].].].].].].]., 1 S 9.G.U.Y.P.x.9.2.%.} -.g.v.S.J.J.H.K.K.h.:.| ] v ] | { ~ d 9 0 w # @ @ ].].].].].].].].].].].].].].].].",
"].].].].].].].].].t 7 g C %.S.Y.R.R.U.b.h.p.-.p.c.G.G.P.K.K.T.P.S.9.-.*.| *.*.*.~ d p i e 5 , 4 n ].].].].].].].].].].].].].].].",
"].].].].].].].].2 n Z Z S Q f.P.W.W.W.T.G.v.j.c.G.K.U.T.R.T.R.T.F.h.p.i.i.p.i.-.~ v z s y h C R O.,.].].].].].].].].].].].].].].",
"].].].].].].].7 7 n S / ( O.8.F.R.Q.~.Q.R.T.G.G.T.R.R.W.E.W.Q.R.P.v.x.x.c.x.j.-.| ] Y P P ' >.q.s.O.].].].].].].].].].].].].].].",
"].].].].].].Z U Z C F Q :.3.9.c.T.Q.^.^.^.W.R.T.W.Q.Q.W.~.~.~.W.T.K.G.G.G.G.v.p.i.| ) ) ,.d.C.z.>.A , ].].].].].].].].].].].].].",
"].].].].].].m S ' ( _ X.,.a.g.c.P.W.^.^.(.^.~.Q.^.^.^.^.^.^.^.~.W.T.T.R.T.U.n.c.l.9.q.l.D.H.D.8.F 7 : O ].].].].].].].].].].].].",
"].].].].].2 m F W +.6.,.4.f.c.F.U.W.^.(.(.(.(.(.^.(.(./.(.(.(./.^.!.!.!.!.R.K.G.b.D.H.E.E.J.e.o.C 5 : + O ].].].].].].].].].].].",
"].].].].].: 2 m W o.5.f.f.h.b.J.T.W.^.(._.`.(.(.).).`.`.).`.).(././././.~.W.R.R.E.E.W.Q.I.l.%.k t 3 > - + O ].].].].].].].].].].",
"].].].].].; , 7 C Q ,.e.x.D.F.P.R.W.^.(._.`.`.`.`.`.`.`.`.`.`.`.).).).(./.~.^.~.~.~.~.E.A.8.T l i i e * o O O ].].].].].].].].].",
"].].].].].5 5 7 y Z / 2.h.D.K.T.W.Q.(.(.`.`.`.'.`.`.'.`.'.`.'.'.`.`.`.`.(.(.(.(.(./.Q.J.g.| v v d 9 * $ .   X ].].].].].].].].].",
"].].].].].].r k k l I ) 9.c.K.R.Q.~.(.(._.`.`.'.'.'.'.'.'.'.'.'.'.`.`.`.`.`._._.(.^.E.b.i.*.] z q 8 % $ . . O O ].].].].].].].].",
"].].].].].].= e l v ~ { =.a.F.R.Q.^.(.`.`.'.'.'.'.'.'.'.'.'.'.'.'.'.'.'.'.`.`._./.~.I.c.i.{ v d q 9 8 * % $ + & ].].].].].].].].",
"].].].].].].@ > e l ~ | -.g.v.Y.Q.^.(.`.`.`.'.'.'.'.'.'.'.'.'.'.'.'.'.'.'.`.`._./.E.K.x.i.] v z d p p i u w 8 = ].].].].].].].].",
"].].].].].].5 y a L I [ =.g.n.U.Q./.(.`.'.'.'.'.'.'.'.'.'.'.'.'.'.'.'.'.'.'.`.).^.R.K.c.p.-.| { ] v z d q - o O ].].].].].].].].",
"].].].].].]./ ( ) %.=.2.p.j.F.Y.W.^.).`.`.`.'.'.'.'.'.'.'.'.'.'.'.'.'.'.'.`.`.(.^.!.T.K.v.j.p.*.] v p 9 - o o O ].].].].].].].].",
"].].].].].].].z.x.C.S.F.G.U.T.W.~./.(.`.'.'.'.'.'.'.'.'.'.'.'.'.'.'.'.'.'.'.`.)./.~.E.U.n.g.i.] z p 9 % $ . X O ].].].].].].].].",
"].].].].].].].f.S.G.Y.R.R.W.!.^./.(.`.`.'.'.'.'.'.'.'.'.'.'.'.'.'.'.'.'.'.`.`.).(.~.R.K.c.i.{ v z p q 8 * $ X O ].].].].].].].].",
"].].].].].].].( 1.s.x.J.T.W.~.^.(.`.`.'.'.'.'.'.'.'.'.'.'.'.'.'.'.'.'.'.'.'.`.(.^.W.Y.G.x.i.=.[ v z p 9 - $ O O ].].].].].].].].",
"].].].].].].].y P / :.i.c.G.R.Q.^.(.`.'.'.'.'.'.'.'.'.'.'.'.'.'.'.'.'.'.'.`.`.)./.!.R.K.c.a.-.[ ! l i w = + O O ].].].].].].].].",
"].].].].].].].j P / &.2.h.F.U.W.^.(._.`.'.'.'.'.'.'.'.'.'.'.'.'.'.'.'.'.'.'.`.`.(.^.W.T.G.x.i.&./ P j 5 , ; # O ].].].].].].].].",
"].].].].].].].y l Y } 2.p.c.G.Y.Q./._.`.`.'.'.'.'.'.'.'.'.'.'.'.'.'.'.'.'.'.`.`.(.(.^.Q.W.U.F.x.i.&.( k t , # ].].].].].].].].].",
"].].].].].].].r s x / &.i.c.K.R.~.(.`.`.'.'.'.'.'.'.'.'.'.'.'.'.'.'.'.'.'.'.`.)./.^.~.~.Q.R.Y.K.G.x.a.1.} T Z ].].].].].].].].].",
"].].].].].].].> i x ^ -.g.n.U.W.^.(.).`.`.'.'.'.'.'.'.'.'.'.'.'.'.'.'.'.`.`.).(.^.Q.R.Y.K.K.G.F.S.c.j.f.q.,.O.].].].].].].].].].",
"].].].].].].].a P ^ -.s.j.n.K.R.Q.^.(.`.'.'.'.'.'.'.'.'.'.'.'.'.'.'.'.'.`.`.(./.!.R.U.F.j.s.2.2.:.&.;.} ) / ( ].].].].].].].].].",
"].].].].].].].I ( %.&.-.i.g.v.K.E.~.(.`.`.'.'.'.'.'.'.'.'.'.'.'.'.'.'.'.`.`.(.^.W.R.K.S.g.2.} / P Z m y t t 7 ].].].].].].].].].",
"].].].].].].].Z l P Y ~ %.i.x.J.E.^.(.).`.'.'.'.'.'.'.'.'.'.'.'.'.'.`.`.`.`.).^.Q.Y.F.j.p.9.*.^ P a 7 2 ; ; # ].].].].].].].].].",
"].].].].].].].3 w a k ! &.p.x.K.W.^.(.).`.`.`.`.'.'.'.'.'.'.'.'.'.'.`.`.).(.(.^.Q.R.G.a.1.} ] ~ Y P y 2 ; @ O ].].].].].].].].].",
"].].].].].].].# 3 i x } 2.d.A.L.W.^./.(.(.`.`.`.`.'.'.'.'.'.'.`.`.`.`.).(.^.~.Q.W.E.K.x.2.^ I d s s s r 3 : ].].].].].].].].].].",
"].].].].].].].= r l / } ,.y.D.R.Q.^./.^.(.(.`.`.`.`.`.'.'.`.`.`.`.`.).(.^.^.R.T.T.K.G.D.i.:.~ h e 3 2 > > = ].].].].].].].].].].",
"].].].].].].].t Z L P ' ,.B.L.E.Q.Q.Q.!.~.^._.(.).).`.`.`.`.).).(.(.^./.~.~.E.L.F.D.x.h.f.i.} I y 2 : ; # O ].].].].].].].].].].",
"].].].].].].].].t m J O.e.F.Y.R.R.Y.I.R.W.^./././.(.).).`.(.(.).(.^.~.~.Q.Q.E.H.z.f.a.9.1.1.1./ P y : ; @ ].].].].].].].].].].].",
"].].].].].].].].g D ` 6.Z.H.L.H.D.A.D.L.E.~.~.Q.~.^.(.(.(./.^./.^.!.W.R.Q.E.T.K.l.0.1.1.) / / %./ Z t , @ ].].].].].].].].].].].",
"].].].].].].].].].W ,.k.V.A.Z.m.e.l.C.F.R.E.T.T.E.!.^.(./.Q.Q.~.Q.R.Y.U.P.R.Y.K.A.0.;.) ) I Z Z T T C 7 ].].].].].].].].].].].].",
"].].].].].].].].].+.w.d.k.t.<.<.,.s.d.S.I.L.F.L.T.Q.~./.~.E.T.Q.R.I.H.F.A.H.P.J.A.d.O.Q E I C h g m S ].].].].].].].].].].].].].",
"].].].].].].].].].>.0.0.<.' ` ' >.:.t.S.D.V.V.D.L.R.~.~.Q.K.L.T.Y.J.C.V.z.l.D.D.A.d.<._ F Z Z h 4 < ].].].].].].].].].].].].].].",
"].].].].].].].].].].O._ J J R ( ( ' 3.C.f.q.d.C.H.I.Q.Q.T.D.D.F.L.D.d.s.d.0.k.V.z.k.r.` J h h h 7 ].].].].].].].].].].].].].].].",
"].].].].].].].].].].H B B N F T U ' d.q.,.>.0.f.Z.P.E.E.L.V.V.V.D.V.0.,.3.3.>.y.d.k.3.O.J M g f 7 ].].].].].].].].].].].].].].].",
"].].].].].].].].].].b b b m Z m D >.3.;.' o.3.y.M.L.E.R.A.y.d.q.l.f.,.O.O.>.o.O.w.w.w.+.R V g 1 ].].].].].].].].].].].].].].].].",
"].].].].].].].].].].1 6 f n n n R >.;.W R ` ,.6.y.H.R.K.M.7.0.3.0.q.>.Q R ' ` R O.5.5.<._ G b ].].].].].].].].].].].].].].].].].",
"].].].].].].].].].].< 1 g 7 g m ` o.R D D ` +.@.t.H.Y.H.t.@.>.O.>.3.+.R F R Q J J +.@.<.o.G ].].].].].].].].].].].].].].].].].].",
"].].].].].].].].].].].6 f 1 f D ` W A M A W o.X.r.H.K.A.5.X.O.Q ' ,.O.J A A R H V J X.o.+.K ].].].].].].].].].].].].].].].].].].",
"].].].].].].].].].].].1 1 f f H _ M n h V W ....6.D.F.M.#._ ' R J O.o.F m n D D M M J _ o.].].].].].].].].].].].].].].].].].].].",
"].].].].].].].].].].].].< f M H B f f g N J K K r.D.D.t...K _ H A ` ` J n h n m n b M J ].].].].].].].].].].].].].].].].].].].].",
"].].].].].].].].].].].].].g V V f f f g V V G K 6.A.V.<.K G K D M J ` H n f g m n g b ].].].].].].].].].].].].].].].].].].].].].",
"].].].].].].].].].].].].].].].].f 1 1 g V B B K 6.C.d.@.H G G N g V W D n f 6 g ].].].].].].].].].].].].].].].].].].].].].].].].",
"].].].].].].].].].].].].].].].].].].].].M B B J 3.z.w...G B V M g m J H n ].].].].].].].].].].].].].].].].].].].].].].].].].].].",
"].].].].].].].].].].].].].].].].].].].].].].].J 3.l.,._ G ].].].].].].].].].].].].].].].].].].].].].].].].].].].].].].].].].].].",
"].].].].].].].].].].].].].].].].].].].].].].].].].].].].].].].].].].].].].].].].].].].].].].].].].].].].].].].].].].].].].].].].",
"].].].].].].].].].].].].].].].].].].].].].].].].].].].].].].].].].].].].].].].].].].].].].].].].].].].].].].].].].].].].].].].].",
"].].].].].].].].].].].].].].].].].].].].].].].].].].].].].].].].].].].].].].].].].].].].].].].].].].].].].].].].].].].].].].].].",
"].].].].].].].].].].].].].].].].].].].].].].].].].].].].].].].].].].].].].].].].].].].].].].].].].].].].].].].].].].].].].].].].",
"].].].].].].].].].].].].].].].].].].].].].].].].].].].].].].].].].].].].].].].].].].].].].].].].].].].].].].].].].].].].].].].].",
"].].].].].].].].].].].].].].].].].].].].].].].].].].].].].].].].].].].].].].].].].].].].].].].].].].].].].].].].].].].].].].].]."
};
