/* XPM */
static char *_795fa345cf94a62db2de6499b718406RcQQOeq2vfH2Dms9[] = {
/* columns rows colors chars-per-pixel */
"64 64 151 2 ",
"   c None",
".  c black",
"X  c #16000C",
"o  c #33041E",
"O  c #57362F",
"+  c #736118",
"@  c #764051",
"#  c #BB163A",
"$  c #BB193C",
"%  c #89731B",
"&  c #840D4F",
"*  c #BE1E41",
"=  c #822C56",
"-  c #A70B62",
";  c #B82F79",
":  c #B12672",
">  c #AB3370",
",  c #B33976",
"<  c #C51C4C",
"1  c #C02246",
"2  c #C3284C",
"3  c #C52850",
"4  c #D3396B",
"5  c #C72B7D",
"6  c #D52C7F",
"7  c #DD3075",
"8  c #BD6852",
"9  c #A94373",
"0  c #B67065",
"q  c #D04669",
"w  c #D54578",
"e  c #DC487D",
"r  c #D34B70",
"t  c #DA5C7F",
"y  c #DC6A6C",
"u  c #C47571",
"i  c #F36670",
"p  c #F0677A",
"a  c #F8757C",
"s  c #858201",
"d  c #AA950C",
"f  c #B79C23",
"g  c #D1B710",
"h  c #FABD29",
"j  c #F7A23D",
"k  c #FAAC3A",
"l  c #CAC107",
"z  c #E4DE06",
"x  c #F5DE0D",
"c  c #F6ED08",
"v  c #FEE80D",
"b  c #FDE40F",
"n  c #FFF905",
"m  c #FCC825",
"M  c #E48C47",
"N  c #F79A41",
"B  c #BA3E80",
"V  c #EF158F",
"C  c #EF188F",
"Z  c #F0178F",
"A  c #F0188F",
"S  c #EF1891",
"D  c #F01B91",
"F  c #D83B8C",
"G  c #E8268F",
"H  c #F12494",
"J  c #F22B96",
"K  c #F22D99",
"L  c #F3349A",
"P  c #F43B9C",
"I  c #B65880",
"U  c #BC5C84",
"Y  c #BA5381",
"T  c #CE498A",
"R  c #D3498D",
"E  c #C75088",
"W  c #C7568D",
"Q  c #DF4793",
"!  c #DD4C94",
"~  c #D45E93",
"^  c #E54D8B",
"/  c #F24F8F",
"(  c #E0538F",
")  c #EC588C",
"_  c #EA4F90",
"`  c #EC4B9A",
"'  c #E84593",
"]  c #F5439E",
"[  c #F14D9E",
"{  c #EB599C",
"}  c #F7569D",
"|  c #C1608C",
" . c #D1689C",
".. c #D96A99",
"X. c #C7779C",
"o. c #DF749A",
"O. c #F87185",
"+. c #F97989",
"@. c #E6669F",
"#. c #E86498",
"$. c #F6679A",
"%. c #E57497",
"&. c #F445A1",
"*. c #F64CA2",
"=. c #F94AA3",
"-. c #F752A4",
";. c #F856A5",
":. c #F55CA5",
">. c #F85AA6",
",. c #F555A9",
"<. c #F65CAB",
"1. c #F95EA8",
"2. c #D37CA4",
"3. c #E762A6",
"4. c #FA6DA4",
"5. c #F763AF",
"6. c #FA64AA",
"7. c #FB6BAD",
"8. c #EA78A6",
"9. c #F373AB",
"0. c #FC72AE",
"q. c #F27AAC",
"w. c #F765B1",
"e. c #F967B2",
"r. c #F76BB3",
"t. c #F86EB3",
"y. c #FB75B1",
"u. c #F67AB7",
"i. c #FD7DB3",
"p. c #F877B8",
"a. c #F97CBA",
"s. c #D983AA",
"d. c #DA95B1",
"f. c #ED86A9",
"g. c #FE81B4",
"h. c #F18FB1",
"j. c #FA84BD",
"k. c #E59DBB",
"l. c #F597B9",
"z. c #FB8DC1",
"x. c #FB93C3",
"c. c #F69FC5",
"v. c #FC9AC7",
"b. c #FD9EC8",
"n. c #F3A7C6",
"m. c #FDA3CA",
"M. c #FFAECF",
"N. c #FBA4C6",
"B. c #FFB0CF",
"V. c #FFAFD0",
"C. c #FFB0D0",
/* pixels */
"                                                                                                                                ",
"                                                                        L                                                       ",
"                                                                      >.t.6.&.                                                  ",
"                                                                X o & 6.6.6.>.                                                  ",
"                                                                ' { ` ,.1.<.L                                                   ",
"                                                              =.u.8.0 8 _ =.H                                                   ",
"                                              . .             ( @ + z x +.i.;.                                                  ",
"                                              . o ` 7.t.^ F >.y d g m N / ' 7 < { w.                                            ",
"                                      P         = i.8.0 f M 0.} i p ) ( 4 * $ $ f.B.3.                                          ",
"                                    ;.y.6.      E | O l n m 4.6.` ` e 3 $ # $ 2 l.B.s.:                                         ",
"                                  ] y.y.y.P     w % s c n k 0.g.i.:.4 1 $ # # q m.V.d.Y                                         ",
"                                  6.7.t.y.;.J >.$.j b v h O.i.g.y.i.N.h.%.( r #.V.V.c.*.                                        ",
"                                P 7.p.x.7.7.6.g.i.7.O.a $.y.g.i.7.m.B.V.C.V.M.r.r.e.*.                                          ",
"                                  1.;.-.1.i.g.g.g.g.i.i.6.6.g.g.e.m.M.V.M.V.c.r.b.t.                                            ",
"                                        ;.g.g.g.g.g.y.6.;.:.7.7.-.s.d.k.n.v.r.v.C.r.                                            ",
"                                        -.g.i.g.g.g.i.i.i.0.6.R , E X.2.u.r.v.B.m.,.                                            ",
"                                        P y.g.g.i.g.g.g.g.q.U U 3.W  .p.z.V.V.V.z.H                                             ",
"                                          ] 1.7.7.7.6.>.' 9 ..9.> ; e.z.b.m.V.v.*.                                              ",
"                                                          F q.I 5       P ,.e.&.                                                ",
"                                                            Y ..L                                                               ",
"                                                            ..y.J                                                               ",
"                                                          - :.y.H   L                                                           ",
"                                                      G T :.7.i.1.0.y.7.K                                                       ",
"                                                    P 9.i.g.g.i.g.i.g.g.6.                                                      ",
"                                                  *.y.g.g.g.6.-.6.g.g.g.g.-.                                                    ",
"                                              D ;.g.g.g.g.7.,.z.5.6.g.g.g.y.L                                                   ",
"                                            H 6.g.g.g.g.g.-.j.C.m.:.7.g.g.g.6.D                                                 ",
"                                          J 7.g.g.g.i.y.i.*.v.B.m.a.*.i.g.g.i.=.                                                ",
"                                        K 7.g.g.g.7.;.0.0.-.m.M.z.m.&.=.0.g.g.0.K                                               ",
"                                      L 0.g.g.i.1.J >.g.7.<.M.M.a.m.e.  L 6.g.g.6.D                                             ",
"                                    L 0.g.g.y.*.    *.g.6.e.B.M.a.m.r.    H 1.i.g.*.                                            ",
"                                  P y.g.g.0.P       P g.;.p.C.M.a.m.a.        ;.i.y.P                                           ",
"                                P y.g.g.7.L         L i.-.j.B.M.a.m.z.          ;.i.0.J                                         ",
"                              P 0.g.g.7.L           J y.*.x.M.M.j.m.x.            ;.g.6.D                                       ",
"                            L 0.g.g.0.L             J 0.=.v.B.M.x.M.c.L           D 6.g.1.Z                                     ",
"                          K 0.g.g.y.P               H 7.*.m.M.M.m.B.m.&.            H 6.g.;.Z                                   ",
"                        H 6.g.g.i.]                 H 7.-.m.V.M.V.m.V.*.              L 0.g.>.A                                 ",
"                      D 6.g.g.i.-.                  J 7.,.m.V.V.V.V.V.,.                [ y.i.;.                                ",
"                      -.g.i.g.1.                    L 7.,.M.M.M.V.V.V.w.                  ;.g.i.&.                              ",
"                    K 0.g.i.7.                      ] 7.<.C.M.C.M.V.V.r.                P y.i.i.]                               ",
"                      7.g.y.6.]                     ;.6.5.B.M.M.M.M.C.p.              K 0.g.g.1.                                ",
"                      L i.g.i.7.                  V 7.1.t.B.M.V.V.M.V.a.            D 7.g.g.7.J                                 ",
"                        ] i.i.i.>.                H 0.:.p.M.M.M.M.M.M.j.            -.g.g.7.L                                   ",
"                          -.g.g.i.*.              L g.-.a.M.M.M.M.M.M.z.          P i.g.0.P                                     ",
"                          V ;.g.g.y.]             =.g.-.j.C.C.M.M.M.M.x.H       J 7.g.0.L                                       ",
"                            A 1.g.g.0.P           :.g.*.j.B.M.M.V.M.M.v.K       6.g.0.L                                         ",
"                              D 1.g.g.7.K       C 0.g.=.z.C.V.M.M.V.M.b.K     *.i.0.L                                           ",
"                                A -.i.i.7.J     K y.i.=.x.B.M.M.M.M.M.m.L   &.y.0.L                                             ",
"                                    =.y.g.6.H   P g.g.[ v.M.M.M.M.M.M.m.L L y.0.L                                               ",
"                                      P 0.g.6.D -.g.y.&.b.M.M.V.M.M.M.b.P 0.y.L                                                 ",
"                                        L 7.g.6.=.y.i.=.m.C.M.C.M.M.B.v.&.7.]                                                   ",
"                                            6.g.6.*.y.*.m.M.M.M.B.M.M.x.*.1.                                                    ",
"                                          *.0.g.g.-.7.*.m.C.M.M.M.M.C.a.>.g.]                                                   ",
"                                    Z ] 7.0.0.g.g.-.6.-.V.C.M.V.M.M.M.e.6.g.6.    ;.L                                           ",
"                            L 6.P ;.6.-.7.;.y.g.i.*.6.,.M.C.V.M.M.C.m.-.0.g.i.J >.g.-.                                          ",
"                        L [ =.y.] i.g.7.P 0.i.g.0.[ 7.;.m.C.V.M.M.C.x.=.i.i.i.-.0.g.-.D                                         ",
"                        ;.y.1.0.[ g.g.0.6.i.g.g.:.:.y.*.m.M.M.M.M.C.t.1.g.i.g.y.i.g.[ L Z                                       ",
"                        P 7.>.6.*.g.g.7.0.g.g.7.P y.i.&.b.B.M.M.M.M.&.6.g.g.i.i.g.i.] 1.]                                       ",
"                          L L 6.-.g.g.i.i.g.7.J P g.g.;.a.V.M.M.M.z.V P y.g.g.g.g.6.*.i.P                                       ",
"                              K L i.g.g.g.7.K   H 7.g.0.=.v.B.V.M.*.    ] :.*.*.*.] 7.]                                         ",
"                                  *.0.7.*.H       ] i.g.1.<.m.C.i.L       K >.7.7.1.K                                           ",
"                                    H D             1.g.i.-.r.z.,.-.        D L K                                               ",
"                                                    J y.g.y.*.-.y.>.                                                            ",
"                                                    ] ;.g.g.6.6.g.;.                                                            "
};
