/* XPM */
static char *_4881_dc41a986271665cf39c963d9840780e321b940897383a840e5ab6aa35c6e428d[] = {
/* columns rows colors chars-per-pixel */
"64 64 130 2 ",
"   c #D58C96",
".  c #D48D9B",
"X  c #D99295",
"o  c #D6909D",
"O  c #DB949C",
"+  c #DE9B9D",
"@  c #E19D9D",
"#  c #DFA19C",
"$  c #E3A39C",
"%  c #E8A79E",
"&  c #E5AA9E",
"*  c #E8AC9F",
"=  c #D68FA1",
"-  c #D692A4",
";  c #DA95A3",
":  c #D799A6",
">  c #DC9AA4",
",  c #D796A9",
"<  c #DA96A9",
"1  c #D799A8",
"2  c #DB9BAB",
"3  c #D79FB2",
"4  c #DC9DB2",
"5  c #E19DA2",
"6  c #DEA1A4",
"7  c #DBA1AE",
"8  c #D7A0B1",
"9  c #DCA3B3",
"0  c #DEA9B5",
"q  c #DEA4B9",
"w  c #DEABBB",
"e  c #DFB1B5",
"r  c #DEB4BC",
"t  c #E3A4A3",
"y  c #E5AAA3",
"u  c #E9ADA2",
"i  c #E0A6AA",
"p  c #E3ACAB",
"a  c #E9AEA9",
"s  c #E6B0A5",
"d  c #EAB4A4",
"f  c #ECBAA6",
"g  c #E4B3AC",
"h  c #EBB4AA",
"j  c #ECBBAB",
"k  c #F0BEAC",
"l  c #E0A4B6",
"z  c #E1ABB4",
"x  c #E0A6BA",
"c  c #E2ACBB",
"v  c #E3B3B4",
"b  c #EAB6B0",
"n  c #E6BBB4",
"m  c #E9BDB2",
"M  c #E3B4BC",
"N  c #E5BABD",
"B  c #E9BEB9",
"V  c #EEC2AC",
"C  c #F1C3AD",
"Z  c #F1C8AF",
"A  c #EDC4B4",
"S  c #EFCBB5",
"D  c #E5C0BB",
"F  c #ECC5BB",
"G  c #EDCABE",
"H  c #F1C6B2",
"J  c #F3CBB4",
"K  c #F1CCBE",
"L  c #F5D0B6",
"P  c #F4D3BB",
"I  c #DEAEC2",
"U  c #DFB4C1",
"Y  c #DFB9C4",
"T  c #E2ACC2",
"R  c #E2B4C3",
"E  c #E4BAC4",
"W  c #E8BFC5",
"Q  c #E4B4C9",
"!  c #E4BCCB",
"~  c #E5BED1",
"^  c #E7C2C5",
"/  c #EAC4C4",
"(  c #EDCBC4",
")  c #E5C2CD",
"_  c #E9C5CB",
"`  c #E6CBCE",
"'  c #EDCACB",
"]  c #F1CDC3",
"[  c #F1CECA",
"{  c #EED2C5",
"}  c #EDD3CC",
"|  c #F4D2C4",
" . c #F4D8C4",
".. c #F3D4CC",
"X. c #F3DACC",
"o. c #E6C4D4",
"O. c #E9C4D4",
"+. c #E6C9D4",
"@. c #EBCCD4",
"#. c #E7C5D8",
"$. c #E9C6DA",
"%. c #E6CAD9",
"&. c #EBCBDA",
"*. c #E7D0D5",
"=. c #EED1D4",
"-. c #EDDCD5",
";. c #E7D3DD",
":. c #EBD3DB",
">. c #ECDBDD",
",. c #F1D3D2",
"<. c #F4DDD4",
"1. c #F0D6DD",
"2. c #F3DCDB",
"3. c #EDE2DE",
"4. c #F5E1D5",
"5. c #F4E3DB",
"6. c #F8E5DC",
"7. c #EAD5E1",
"8. c #EBDCE2",
"9. c #F0D5E0",
"0. c #F1DDE2",
"q. c #ECE3E3",
"w. c #EEE9E6",
"e. c #EDE5E9",
"r. c #ECE9EA",
"t. c #F4E4E4",
"y. c #F9E8E3",
"u. c #F2E4E9",
"i. c #F6E8EC",
"p. c None",
/* pixels */
"p.p.p.p.p.p.p.p.p.p.p.p.p.p.p.p.p.p.p.p.p.p.p.p.p.p.>.p.7.p.p.p.p.p.p.p.p.p.p.p.p.p.p.p.p.p.p.p.p.p.p.p.p.p.p.p.p.p.p.p.p.p.p.p.",
"p.p.p.p.p.p.p.p.p.p.p.p.p.p.p.p.p.p.p.p.p.p.p.p.p.8.+.o.o.>.p.p.p.p.p.p.p.p.p.p.p.p.p.p.p.p.p.p.p.p.p.p.p.p.p.p.p.p.p.p.p.p.p.p.",
"p.p.p.p.p.p.p.p.p.p.p.p.p.p.p.p.p.p.p.q.0.1.0.u.8.+.) ! ) >.p.p.p.p.p.p.p.p.p.p.p.p.p.p.p.p.p.p.p.p.p.p.p.p.p.p.p.p.p.p.p.p.p.p.",
"p.p.p.p.p.p.p.p.p.p.p.p.p.p.p.p.p.p.p.*.@._ ` &.:.! Y Y Q +.u.p.p.p.p.p.p.p.p.p.p.p.p.p.p.p.p.p.p.p.p.p.p.p.p.p.p.p.p.p.p.p.p.p.",
"p.p.p.p.p.p.p.p.p.p.p.p.p.p.p.p.p.p.q.^ W ~ ~ ~ ~ Q Q R U ! >.p.p.p.p.p.p.p.p.p.p.p.p.p.p.p.p.p.p.p.p.p.p.p.p.p.p.p.p.p.p.p.p.p.",
"p.p.p.p.p.p.p.p.p.p.p.p.p.p.p.p.p.r.>._ W ~ ~ ~ ! Q I R w U @.u.p.p.p.p.p.p.p.p.p.p.p.p.p.p.p.p.p.p.p.p.p.p.p.p.p.p.p.p.p.p.p.p.",
"p.p.p.p.p.p.p.p.p.p.p.p.p.p.p.p.i.8.1.~ [ ~ ~ ~ ! Y I I T 0 ! 0.p.p.p.p.e.8.e.p.p.p.p.p.p.p.p.p.p.p.p.p.p.p.p.p.p.p.p.p.p.p.p.p.",
"p.p.p.p.p.p.p.p.p.p.p.p.p.p.p.r.0.9.1.$.~ &.$.$.~ E ! Q R c E *.p.p.p.p.>.) E ) p.p.7.*.@.>.e.p.p.p.p.p.p.p.p.p.p.p.p.p.p.p.p.p.",
"p.p.p.p.p.p.p.p.p.p.p.p.p.p.p.u.1.1.&.O.O.&.$.$.~ ! Q R R c c W ` +.:.p.,.T T c _ ,.! ! ! _ 9.p.p.p.p.p.p.p.p.p.p.p.p.p.p.p.p.p.",
"p.p.p.p.p.p.p.p.p.p.p.p.p.p.e.>.&.9.&.$.$.$.$.$.~ ~ E Y T T x M c R _ >.W c x x T R c x 0 0 E 0.p.p.p.p.p.p.p.p.p.p.p.p.p.p.p.p.",
"p.p.p.p.p.p.p.p.p.p.p.p.p.p.u.1.&.&.&.&.&.&.&.&.#.Q R R M c l z x c M _ W x c T T q q 8 8 9 e *.p.p.p.p.p.p.p.p.p.p.p.p.p.p.p.p.",
"p.p.p.p.p.p.p.p.p.p.p.p.p.p.q.1.&.&.&.$.$.$.~ &.! T T T c w x l x x c E T c c T T T 8 4 2 1 9 ) t.p.p.p.p.p.p.p.p.p.p.p.p.p.p.p.",
"p.p.p.p.p.p.p.p.p.p.p.p.p.p.q.9.$.$.&.$.$.$.$.#.Q I x q x l l x x x c Q R c T T I q 3 4 , - : r 2.r.p.p.p.p.p.p.p.p.p.p.p.p.p.p.",
"p.p.p.p.p.p.p.p.p.p.p.p.p.p.i.0.9.$.$.&.&.$.$.~ U q q l l l l x x x c R Q Q T T w q 4 , , = o 1 ) *.>.e.p.p.p.p.p.p.p.p.p.p.p.p.",
"p.p.p.p.p.p.p.p.p.p.p.p.p.p.p.u.7.$.$.$.$.$.#.! T l 9 l l l l l l l x T Q Q Q Q T 4 4 , - = . = 1 8 r +.8.p.p.p.p.p.p.p.p.p.p.p.",
"p.p.p.p.p.p.p.p.p.p.p.p.p.p.p.e.7.7.$.$.$.$.~ Q w 9 q l l l x x l l x c T Q Q T x 4 4 , - = = . o o O 7 / p.p.p.p.p.p.p.p.p.p.p.",
"p.p.p.p.p.p.p.p.p.p.p.p.p.p.p.r.7.$.$.$.$.$.~ Q c l l l l l l l 4 x q x T Q Q T q 4 < < = = =   .     . 7 =.p.p.p.p.p.p.p.p.p.p.",
"p.p.p.p.p.p.p.p.p.p.p.p.p.p.p.8.7.$.$.$.$.$.Q I l c l l l l l l x 4 x q T Q Q T q 4 < - = = .   .       X E q.p.p.p.p.p.p.p.p.p.",
"p.p.p.p.p.p.p.p.p.p.p.p.p.p.p.7.$.$.$.$.$.~ Q I x l l l l l l l x x x x T T T T q 4 < - = = . .         X 7 ` r.p.p.p.p.p.p.p.p.",
"p.p.p.p.p.p.p.p.p.p.p.p.p.p.p.7.#.~ $.$.$.~ Q T x c l l l l l l 4 x q q T T T T q 4 < - = = = .           1 E >.p.p.p.p.p.p.p.p.",
"p.p.p.p.p.p.p.p.p.p.p.p.p.p.p.&.$.~ $.$.$.~ ! T c c l l l l l q 4 4 4 x q T T T q 4 , = < = = .           ; z ` r.p.p.p.p.p.p.p.",
"p.p.p.p.p.p.p.p.e.8.8.e.p.p.:.%.#.$.~ $.#.~ ! T M c b x l l q q x 4 < 4 4 T T T q 4 4 = = = = . .   X   o ; < R >.p.p.p.p.p.p.p.",
"p.p.p.p.p.p.p.p.;.%.7.8.8.8.%.o.#.~ ~ ~ ~ ! Q T c T c x l l l q x < < 4 q T T T q 4 4 = = = = = . . o o O ; < i @.p.p.p.p.p.p.p.",
"p.p.p.p.p.p.p.7.%.#.#.%.&.7.#.o.$.$.~ ~ I R I T c c c x l l q l 4 4 < 4 q q T q q 4 4 < < = O = . . o ; : : > 2 _ p.p.p.p.p.p.p.",
"p.p.p.p.p.p.p.%.#.o.#.%.+.%.$.#.~ ~ ~ Q I I q I w w w 0 l l l 9 4 < < 4 l x x x 4 4 4 < < < < O o o O < < > : : M p.p.p.p.p.p.p.",
"p.p.p.p.p.p.8.#.#.o.o.o.#.#.$.$.$.~ I I q I q w w w c c l l l 2 4 4 < < 4 x x 4 4 < < < = < = = o o O ; 2 < > + M p.p.p.p.p.p.p.",
"p.p.p.p.p.p.7.%.o.#.o.#.#.o.#.#.#.Q I I q q 8 0 q c c z l l l 4 4 4 < 5 4 x x 4 5 < < < < = < = o o O ; 5 2 ; ; v ' 2.p.p.p.p.p.",
"p.p.p.p.p.p.7.%.%.o.o.O.~ #.~ ~ ~ I I 3 8 8 3 8 9 z c c l l i 9 l 5 < 4 < < 4 < < < < < = < = = O o ; < 2 2 ; ; i v N ` p.p.p.p.",
"p.p.p.p.p.p.7.#.o.#.o.o.! ! ! ~ ~ I q 8 8 8 8 8 9 0 z z z l 5 4 4 4 5 < < 4 4 5 < < < < < ; O = O O o 5 2 2 + + O 6 6 7 ` p.p.p.",
"p.p.p.p.p.r.7.%.%.+.o.) ! ! ! E U I q 0 8 8 8 8 7 9 0 0 z z l l 5 4 < < < < < < < < < < ; ; O = O O = ; 2 2 O X X X X + v p.p.p.",
"p.p.p.p.p.p.7.%.%.o.o.o.! E E E U w q 8 8 8 8 2 7 7 7 9 l z l 2 4 5 < ; ; < < < < 5 O O O O O O O O O 5 2 2 O X X   X + i ' p.p.",
"p.p.p.p.p.p.e.;.%.%.o.o.E R Q R U w 0 8 8 8 8 8 7 8 7 9 l l i 2 4 5 O ; < ; < 5 5 5 = O O 5 5 O O = ; 5 2 6 O X X X X + i / p.p.",
"p.p.p.p.p.p.q.;.%.%.+.o.Q E R M r w 0 7 8 7 7 7 2 7 2 9 7 9 7 2 5 < > + ; : ; ; 5 = O O @ 5 5 5 @ O 5 5 5 5 ; X X   X @ 5 N p.p.",
"p.p.p.p.p.q.7.;.%.%.o.o.O.! E R M w 0 9 9 9 8 9 9 7 7 7 7 8 2 2 4 < 2 : ; O ; + O O O 5 5 5 % 5 @ 5 < < 5 5 5 O X X X @ 5 B p.p.",
"p.p.p.p.p.7.%.%.%.+.o.o.o.! W M v M M 0 w 0 z 9 8 7 7 7 9 7 7 2 < 2 1 : : O + > O O o @ % 5 5 5 5 < 5 5 5 5 @ X X X X X 5 F p.p.",
"p.p.p.p.p.7.%.+.+.o.o.o.) ) N M v B M z M M c z 0 9 7 9 7 7 7 2 2 , 1 1 > > + + @ O @ @ 5 5 @ 5 5 5 5 5 5 5 @ @ @ @ @ % u b ..p.",
"p.p.p.p.r.:.#.o.o.o.o.o.o.! N n N N N M M M M c 0 0 9 0 7 7 7 2 1 1 : : ; + > t 5 @ @ @ + 5 5 > < 5 5 5 5 5 @ @ @ @ % * u u / p.",
"p.p.p.p.p.%.o.o.+.o.) ) ) ^ N v E N N N R R N c c 0 9 z 9 9 7 2 1 1 1 : ; 6 t a t 5 @ @ + + O + ; ; O 5 5 5 @ @ @ $ % * t u B -.",
"p.p.p.p.p.>.+.) o.+.) o.! E N N W Q R M M M M M M z z c 0 7 7 2 1 : : : ; t a h h a y t @ O O + O 5 @ 5 @ @ @ @ @ $ % $ t y h ` ",
"p.p.p.p.p.p.+.) ) ) ) ) o.W W E W W E R M M R M M c c w 0 7 7 7 1 1 1 ; 5 y h h h h a y t O + X O @ @ @ @ @ @ @ $ $ $ $ $ y y ' ",
"p.p.p.p.p.p.>.+.` ) ) ) ` ) _ W ~ ~ E r w M M R R R U T w 9 7 8 2 : : : 5 y a j b b h y + + X + X @ % @ @ @ @ % $ $ $ $ $ % * { ",
"p.p.p.p.p.p.p.>.+._ ) _ O.#.+.O.O.! E M M w M E E R R U e 0 9 7 6 6 6 6 y y a h h h a y + + + + @ @ @ @ % @ % % $ $ $ X $ % F 3.",
"p.p.p.p.p.p.p.>.+.` @.+.+.&.+.&.O.! E R M M e R E E E U r 0 q 7 7 6 i y y p a h h a a 5 + + @ + @ @ @ % @ % % % $ $ $ $ $ n } p.",
"p.p.p.p.p.p.q.:.@.+.@.@.&.&.%.+._ ! E R M r w M R Q E Y U M w z g 0 6 t t a a a y t t @ + + + @ @ @ @ @ % % * u % $ $ $ $ ( p.p.",
"p.p.p.p.p.r.8.:.@.@.@.&.&.&.@.#.` _ E U U M w v v M E U M M v M v 0 i i i u p y t $ # + + + @ @ @ @ @ $ % u a u * & $ @ i ' p.p.",
"p.p.p.p.p.r.q.;.*.&.*.:.&.&.@.@._ / ^ N E r v z e v E E E E M E M v z i i i u i t @ # # + # + # @ @ @ % u a f d u * $ $ & ( p.p.",
"p.p.p.p.p.q.>.;.:.&.,.&.,.&.@.O.@._ ^ N r N e v 0 0 N E E ) Y Y E M r w i i u y t # # # # + # # @ $ $ % d j j f h * * & $ A p.p.",
"p.p.p.i.0.-.>.;.:.&.1.&.1.&.@.@._ / ^ N N v v p g p M ! ) ) ) Y E E M e g i p s y & # # $ $ $ $ $ @ & u d k k f d h s y y m 2.p.",
"p.p.p.0.9.,.&.:.:.&.&.1.&.@.=.' W _ W W B b n v p z N ) o.) Y Y Y r e e e p g s s & & & & # $ & $ $ & d k H k j d d d u d h [ p.",
"p.p.8.1.,.,.,.,.:.,.1.&.@.,.[ [ [ W [ W W M n b g n E ) ) ) ) Y r e e e p g s g f s & & & & & & $ * * d k k k j h h d d h h ( p.",
"p.w.>.@.@.@.=.=.&.,.:.,.,.,.,.[ [ [ [ W B B b b b N ^ ` ) ) ) Y r r e p p p s g f f d & & & & & * * u d k H H k f f h d d j ( p.",
"p.e.>.@.@.[ =.,.,.,.,.@.,.,.....[ [ [ [ / B H m F / W _ ) ) ) Y r r e p p p s f f f f f * & * & * u u f k H C k k f f f j A ' p.",
"r.q.>.@.,.@.[ =.,.,.,.<.[ ....| ] ] [ ] / B B F F F / / _ _ ^ Y Y e e s s s g m Z f f f f * d & d d d f Z Z H C C j j j m F } p.",
"r.8.:.@.@.,.=.=.,.,.,.,.,.....| ] ] ] B H K J H A A / / / _ ^ ^ Y e n g g g f Z Z Z V V f d d d d d f f G P H H C C V V G -.q.p.",
"r.e.:.,.,.=.=.=.,.,.,.........| K ] K K ] K K J F F F / ' / _ ^ D n n n f m V V Z Z Z V V f d f d f f V X.-.| J H H A G -.q.p.p.",
"r.q.-.@.,.....=.,.,.<.........| ] K K K K | | K A F / ( ( ' ( ^ D n m n n f V Z L S S Z V f f f f f f Z 3.w.4.X.P |  .<.w.p.p.p.",
"p.u.0.,.=.=.,.,.,.,.,.........] K K K P | | | P J F F ( ( ' ( ( D S D V m V V A L L L L Z V V V V V V P p.p.p.p.t.5.p.p.p.p.p.p.",
"p.p.t.2...} ,.,.,.,.,.........] K K K K | | | P G G F G ] ] ] ( S D S D V A A S L P L L Z Z V V C A P <.p.p.p.p.p.p.p.p.p.p.p.p.",
"p.p.p.2.,.,.=...,.,.,.,.,.......( K ( |  . .<...| G G G ( ] { ( D G D S A A A S L P P L L Z Z Z Z P 4.p.p.p.p.p.p.p.p.p.p.p.p.p.",
"p.p.p.i.2.=.@...,.,.,.,...,.,.,.-.} X...<.<.6.6.X.( G G ( | .. .G G S D A S D P  . . . .L J Z S { 4.p.p.p.p.p.p.p.p.p.p.p.p.p.p.",
"p.p.p.p.t.-.,.,.,.,.,.,.,.<.2.0.w.3.3.5.y.p.p.p.5.} { { { X.X.X.{ ( G G D D P -.p.6.4.4.X.{ { 4.3.p.p.p.p.p.p.p.p.p.p.p.p.p.p.p.",
"p.p.p.p.p.q.2.>.,.,.2.<.2.2.y.w.p.r.w.w.p.p.p.p.p.q.3.3.3.5.5.6.2.} { ( G { 3.p.p.p.p.p.3.3.3.w.p.p.p.p.p.p.p.p.p.p.p.p.p.p.p.p.",
"p.p.p.p.p.r.w.q.3.0.t.t.t.y.p.p.p.p.p.p.p.p.p.p.p.p.p.r.w.w.p.p.p.p.-.-.3.3.p.p.p.p.p.p.p.p.p.p.p.p.p.p.p.p.p.p.p.p.p.p.p.p.p.p.",
"p.p.p.p.p.p.p.p.e.p.p.p.p.p.p.p.p.p.p.p.p.p.p.p.p.p.p.p.p.p.p.p.p.p.p.p.p.p.p.p.p.p.p.p.p.p.p.p.p.p.p.p.p.p.p.p.p.p.p.p.p.p.p.p."
};
